# AST/ASF file generated using VICON BodyLanguage
# -----------------------------------------------
:version 1.10
:name VICON
:units
  mass 1.0
  length 0.45
  angle deg
:documentation
   .ast/.asf automatically generated from VICON data using
   VICON BodyBuilder and BodyLanguage model FoxedUp or BRILLIANT.MOD
:root
   order TX TY TZ RX RY RZ
   axis XYZ
   position 0 0 0  
   orientation 0 0 0 
:bonedata
  begin
     id 1 
     name lhipjoint
     direction 0.62366 -0.717238 0.310833 
     length 2.53602 
     axis 0 0 0  XYZ
  end
  begin
     id 2 
     name lfemur
     direction 0.34202 -0.939693 0  
     length 7.40817  
     axis 0 0 20  XYZ
    dof rx ry rz
    limits (-160.0 20.0)
           (-70.0 70.0)
           (-60.0 70.0)
  end
  begin
     id 3 
     name ltibia
     direction 0.34202 -0.939693 0   
     length 7.7045   
     axis 0 0 20   XYZ
    dof rx
    limits (-10.0 170.0)
  end
  begin
     id 4 
     name lfoot
     direction 0.0673888 -0.185149 0.980397   
     length 2.09456   
     axis -90 7.62852e-016 20   XYZ
    dof rx rz
    limits (-45.0 90.0)
           (-70.0 20.0)
  end
  begin
     id 5 
     name ltoes
     direction 1.53575e-011 -4.21994e-011 1   
     length 1.05543   
     axis -90 7.62852e-016 20   XYZ
    dof rx
    limits (-90.0 20.0)
  end
  begin
     id 6 
     name rhipjoint
     direction -0.489018 -0.800347 0.346851   
     length 2.27268  
     axis 0 0 0  XYZ 
  end
  begin
     id 7 
     name rfemur
     direction -0.34202 -0.939693 0   
     length 7.55487   
     axis 0 0 -20   XYZ
    dof rx ry rz
    limits (-160.0 20.0)
           (-70.0 70.0)
           (-70.0 60.0)
  end
  begin
     id 8 
     name rtibia
     direction -0.34202 -0.939693 0   
     length 7.78969   
     axis 0 0 -20   XYZ
    dof rx
    limits (-10.0 170.0)
 end
 begin
     id 9 
     name rfoot
     direction -0.0859318 -0.236096 0.967923   
     length 2.19143  
     axis -90 -7.62852e-016 -20   XYZ
    dof rx rz
    limits (-45.0 90.0)
           (-20.0 70.0)
  end
  begin
     id 10 
     name rtoes
     direction -1.53538e-011 -4.21989e-011 1   
     length 1.09845   
     axis -90 -7.62852e-016 -20   XYZ
    dof rx
    limits (-90.0 20.0)
  end
  begin
     id 11 
     name lowerback
     direction -0.00762546 0.998978 -0.0445553   
     length 1.98161   
     axis 0 0 0   XYZ
    dof rx ry rz
    limits (-20.0 45.0)
           (-30.0 30.0)
           (-30.0 30.0)
  end
  begin
     id 12 
     name upperback
     direction 0.0422361 0.998867 -0.0219156   
     length 1.97558   
     axis 0 0 0   XYZ
    dof rx ry rz
    limits (-20.0 45.0)
           (-30.0 30.0)
           (-30.0 30.0)
  end
  begin
     id 13 
     name thorax
     direction 0.0442465 0.999021 7.47603e-005   
     length 1.97799   
     axis 0 0 0   XYZ
    dof rx ry rz
    limits (-20.0 45.0)
           (-30.0 30.0)
           (-30.0 30.0)
  end
  begin
     id 14 
     name lowerneck
     direction 0.00312169 0.984641 0.174564   
     length 1.78995   
     axis 0 0 0   XYZ
    dof rx ry rz
    limits (-20.0 45.0)
           (-30.0 30.0)
           (-30.0 30.0)
  end
  begin
     id 15 
     name upperneck
     direction -0.0383028 0.985255 -0.166749   
     length 1.83053   
     axis 0 0 0   XYZ
    dof rx ry rz
    limits (-20.0 45.0)
           (-30.0 30.0)
           (-30.0 30.0)
  end
  begin
     id 16
     name head
     direction -0.0129546 0.997059 -0.0755386  
     length 1.84088  
     axis 0 0 0   XYZ
    dof rx ry rz
    limits (-20.0 45.0)
           (-30.0 30.0)
           (-30.0 30.0)
  end
  begin
     id 17 
     name lclavicle
     direction 0.912857 0.370519 -0.171488  
     length 3.51279  
     axis 0 0 0   XYZ
    dof ry rz
    limits (-20.0 10.0)
           (0.0 20.0)
  end
  begin
     id 18 
     name lhumerus
     direction 1 -4.48962e-011 3.64361e-027   
     length 4.95663   
     axis 180 -30 -90   XYZ
    dof rx ry rz
    limits (-60.0 90.0)
           (-90.0 90.0)
           (-90.0 90.0)
  end
  begin
     id 19
     name lradius
     direction 1 -4.48974e-011 5.97202e-027   
     length 3.38177   
     axis 180 -30 -90   XYZ
    dof rx
    limits (-10.0 170.0)
  end
  begin
     id 20
     name lwrist
     direction 1 -4.4896e-011 9.83288e-027   
     length 1.69088   
     axis -9.31221e-015 90 90   XYZ
    dof ry
    limits (-180.0 0.0)
 end
  begin
     id 21 
     name lhand
     direction 1 -4.4902e-011 1.96551e-026   
     length 0.662909   
     axis -1.25475e-014 90 90   XYZ
    dof rx rz
    limits (-90.0 90.0)
           (-45.0 45.0)
  end
  begin
     id 22 
     name lfingers
     direction 1 -4.48971e-011 3.93277e-026   
     length 0.534454   
     axis -2.50945e-014 90 90   XYZ
    dof rx
    limits (0.0 90.0)
  end
  begin
     id 23
     name lthumb
     direction 0.707107 -6.34933e-011 0.707107   
     length 0.767373   
     axis -90 45 -4.80359e-014   XYZ
    dof rx rz
    limits (-45.0 45.0)
           (-45.0 45.0)
  end
  begin
     id 24 
     name rclavicle
     direction -0.900919 0.395364 -0.178976   
     length 3.40627  
     axis 0 0 0   XYZ 
    dof ry rz
    limits (-10.0 20.0)
           (-20.0 0.0)
  end
  begin
     id 25 
     name rhumerus
     direction -1 -4.48969e-011 1.03875e-027  
     length 5.08365   
     axis 180 30 90   XYZ
    dof rx ry rz
    limits (-90.0 60.0)
           (-90.0 90.0)
           (-90.0 90.0)
  end
  begin
     id 26 
     name rradius
     direction -1 -4.48951e-011 5.02733e-027   
     length 3.35984   
     axis 180 30 90   XYZ
    dof rx
    limits (-10.0 170.0)
  end
  begin
     id 27 
     name rwrist
     direction -1 -4.49011e-011 9.82828e-027   
     length 1.67992   
     axis -9.31221e-015 -90 -90   XYZ
    dof ry
    limits (-180.0 0.0)
  end
  begin
     id 28
     name rhand
     direction -1 -4.48894e-011 1.96774e-026   
     length 0.820764   
     axis -1.25475e-014 -90 -90   XYZ
    dof rx rz
    limits (-90.0 90.0)
           (-45.0 45.0)
  end
  begin
     id 29
     name rfingers
     direction -1 -4.49095e-011 3.92833e-026   
     length 0.661721   
     axis -2.50945e-014 -90 -90   XYZ
    dof rx
    limits (0.0 90.0)
  end
  begin
     id 30
     name rthumb
     direction -0.707107 -6.34881e-011 0.707107   
     length 0.950103   
     axis -90 -45 4.80359e-014   XYZ
    dof rx rz
    limits (-45.0 45.0)
           (-45.0 45.0)
  end
:hierarchy
  begin
    root lhipjoint rhipjoint lowerback
    lhipjoint lfemur
    lfemur ltibia
    ltibia lfoot
    lfoot ltoes
    rhipjoint rfemur
    rfemur rtibia
    rtibia rfoot
    rfoot rtoes
    lowerback upperback
    upperback thorax
    thorax lowerneck lclavicle rclavicle
    lowerneck upperneck
    upperneck head
    lclavicle lhumerus
    lhumerus lradius
    lradius lwrist
    lwrist lhand lthumb
    lhand lfingers
    rclavicle rhumerus
    rhumerus rradius
    rradius rwrist
    rwrist rhand rthumb
    rhand rfingers
  end

#!OML:ASF I:\golf\golf\golf 2\Subject 1\2002-09-07\Subject1.ASF
:FULLY-SPECIFIED
:DEGREES
62
root -8.06049 17.8102 0.166237 -120.527 85.6922 -134.569
lowerback 3.61559 1.49923 -1.61531
upperback 4.74402 2.06595 4.6336
thorax 2.64592 0.978433 5.69112
lowerneck -15.5442 -2.19889 1.32872
upperneck 38.8071 -0.0146207 -4.75408
head 16.5818 0.0785076 -2.1861
rclavicle -2.74323e-014 -5.64548e-014
rhumerus -1.49316 -2.81756 -99.8834
rradius 19.9751
rwrist -32.7087
rhand -15.4452 -8.60886
rfingers 7.12502
rthumb 10.7354 -38.3146
lclavicle -2.74323e-014 -5.64548e-014
lhumerus -4.88266 -35.8115 110.15
lradius 23.8045
lwrist 36.0944
lhand 169.863 64.1348
lfingers 7.12502
lthumb -164.149 34.7636
rfemur -25.9426 -0.233614 11.3858
rtibia 27.1438
rfoot -9.57857 -11.3775
rtoes -3.56183
lfemur -28.524 6.10033 -8.65541
ltibia 27.9804
lfoot -9.94486 -3.12648
ltoes -20.8799
63
root -8.0584 17.8085 0.167657 -120.903 85.7419 -134.979
lowerback 3.57199 1.488 -1.69776
upperback 4.73629 2.04839 4.62175
thorax 2.66225 0.966447 5.7273
lowerneck -15.5448 -2.18925 1.3316
upperneck 38.824 0.0124649 -4.77972
head 16.5924 0.0871409 -2.19368
rclavicle -7.95139e-015 -1.59028e-015
rhumerus -1.52237 -2.88554 -99.9625
rradius 19.9748
rwrist -32.5611
rhand -15.5779 -8.62404
rfingers 7.12502
rthumb 10.6073 -38.3363
lclavicle -7.95139e-015 -1.59028e-015
lhumerus -4.70048 -35.34 110.065
lradius 23.582
lwrist 35.5523
lhand 169.787 64.1123
lfingers 7.12502
lthumb -164.222 34.7354
rfemur -26.0034 -0.223324 11.3258
rtibia 27.2032
rfoot -9.5366 -11.4435
rtoes -4.01445
lfemur -28.5339 6.09676 -8.71892
ltibia 27.9508
lfoot -9.88425 -3.11013
ltoes -20.9926
64
root -8.05582 17.8065 0.170133 -121.939 85.8528 -136.024
lowerback 3.55749 1.49462 -1.90033
upperback 4.73177 2.05276 4.60938
thorax 2.65982 0.961989 5.83029
lowerneck -15.5193 -2.21068 1.33054
upperneck 38.8228 -0.00313417 -4.8163
head 16.5845 0.0763177 -2.21195
rclavicle 1.98785e-014 7.15625e-015
rhumerus -1.56939 -3.03834 -99.9828
rradius 20.0198
rwrist -32.4113
rhand -15.5912 -8.79684
rfingers 7.12502
rthumb 10.5945 -38.5098
lclavicle 1.98785e-014 7.15625e-015
lhumerus -4.57752 -35.1158 110.009
lradius 23.4697
lwrist 35.2567
lhand 169.66 64.3185
lfingers 7.12502
lthumb -164.344 34.9319
rfemur -26.0385 -0.248405 11.1874
rtibia 27.2687
rfoot -9.58882 -11.463
rtoes -4.03822
lfemur -28.526 6.11226 -8.87483
ltibia 27.9357
lfoot -9.88932 -3.12498
ltoes -21.2636
65
root -8.05456 17.8061 0.171214 -122.932 85.9345 -137.013
lowerback 3.56398 1.51051 -2.04217
upperback 4.73372 2.0712 4.60488
thorax 2.6522 0.966774 5.90613
lowerneck -15.4828 -2.22864 1.27599
upperneck 38.7947 -0.0136207 -4.81365
head 16.5604 0.0645518 -2.20115
rclavicle 7.95139e-015 6.36111e-014
rhumerus -1.65788 -3.10605 -99.9705
rradius 20.1586
rwrist -32.5286
rhand -15.7411 -9.05617
rfingers 7.12502
rthumb 10.4499 -38.7765
lclavicle 7.95139e-015 6.36111e-014
lhumerus -4.4927 -35.3252 109.939
lradius 23.462
lwrist 35.4631
lhand 169.483 64.5181
lfingers 7.12502
lthumb -164.514 35.1183
rfemur -26.054 -0.331984 11.0848
rtibia 27.3179
rfoot -9.64885 -11.401
rtoes -3.88981
lfemur -28.5318 6.13831 -9.00683
ltibia 27.9528
lfoot -9.90708 -3.1636
ltoes -21.4197
66
root -8.05416 17.8077 0.171251 -122.997 85.9064 -137.084
lowerback 3.55682 1.47252 -2.0636
upperback 4.74774 2.02096 4.65799
thorax 2.67471 0.940074 5.9764
lowerneck -15.4803 -2.18809 1.20493
upperneck 38.7614 0.0798461 -4.8424
head 16.5482 0.0872655 -2.18355
rclavicle -2.06736e-014 -2.38542e-015
rhumerus -1.84298 -2.64231 -99.9165
rradius 20.4723
rwrist -33.163
rhand -16.2358 -9.34692
rfingers 7.12502
rthumb 9.9727 -39.0907
lclavicle -2.06736e-014 -2.38542e-015
lhumerus -4.32363 -35.3537 109.824
lradius 23.4433
lwrist 35.8298
lhand 169.294 64.6256
lfingers 7.12502
lthumb -164.696 35.2118
rfemur -26.0716 -0.427252 11.1264
rtibia 27.3476
rfoot -9.65291 -11.3088
rtoes -3.90156
lfemur -28.5065 6.0893 -8.94457
ltibia 27.993
lfoot -9.95145 -3.24878
ltoes -20.7247
67
root -8.05343 17.808 0.170854 -122.436 85.8276 -136.533
lowerback 3.54751 1.44384 -1.9993
upperback 4.75242 1.98464 4.70479
thorax 2.68959 0.92343 5.99039
lowerneck -15.4785 -2.15954 1.19272
upperneck 38.7535 0.139019 -4.87303
head 16.5471 0.105222 -2.18421
rclavicle -1.55052e-014 -2.94201e-014
rhumerus -2.07937 -2.13599 -99.8644
rradius 20.8611
rwrist -33.8041
rhand -16.6172 -9.56813
rfingers 7.12502
rthumb 9.60467 -39.3292
lclavicle -1.55052e-014 -2.94201e-014
lhumerus -4.12911 -35.3479 109.666
lradius 23.4077
lwrist 36.3832
lhand 169.026 64.7453
lfingers 7.12502
lthumb -164.954 35.312
rfemur -26.0846 -0.444439 11.231
rtibia 27.3477
rfoot -9.60209 -11.2919
rtoes -4.17091
lfemur -28.4993 6.04867 -8.80487
ltibia 28.0607
lfoot -10.045 -3.30647
ltoes -20.1069
68
root -8.05175 17.807 0.171057 -121.846 85.789 -135.947
lowerback 3.5481 1.46521 -1.89488
upperback 4.74268 2.01483 4.68409
thorax 2.67892 0.942402 5.90771
lowerneck -15.4534 -2.1641 1.21218
upperneck 38.7653 0.122612 -4.85536
head 16.5459 0.105091 -2.18251
rclavicle 3.49861e-014 5.88403e-014
rhumerus -2.29664 -1.72668 -99.8407
rradius 21.1934
rwrist -34.4138
rhand -16.8732 -9.64868
rfingers 7.12502
rthumb 9.35767 -39.421
lclavicle 3.49861e-014 5.88403e-014
lhumerus -4.01261 -35.7448 109.468
lradius 23.4584
lwrist 37.1775
lhand 168.743 64.6516
lfingers 7.12502
lthumb -165.227 35.1981
rfemur -26.0832 -0.435695 11.3002
rtibia 27.3212
rfoot -9.57804 -11.2892
rtoes -4.43083
lfemur -28.5445 6.08405 -8.74362
ltibia 28.1518
lfoot -10.1334 -3.27383
ltoes -20.331
69
root -8.04898 17.8058 0.171687 -121.396 85.753 -135.503
lowerback 3.52284 1.47877 -1.79464
upperback 4.72685 2.03416 4.66584
thorax 2.67762 0.955476 5.83097
lowerneck -15.3586 -2.18355 1.22358
upperneck 38.7502 0.100416 -4.87199
head 16.5126 0.0974626 -2.19344
rclavicle 3.97569e-016 -1.74931e-014
rhumerus -2.45529 -1.4612 -99.8451
rradius 21.4146
rwrist -34.9934
rhand -17.1439 -9.72529
rfingers 7.12502
rthumb 9.09647 -39.5091
lclavicle 3.97569e-016 -1.74931e-014
lhumerus -3.95901 -36.1526 109.342
lradius 23.4907
lwrist 37.7598
lhand 168.673 64.6398
lfingers 7.12502
lthumb -165.294 35.1814
rfemur -26.0734 -0.419445 11.3431
rtibia 27.3055
rfoot -9.6726 -11.2622
rtoes -4.05321
lfemur -28.5784 6.08528 -8.68377
ltibia 28.2289
lfoot -10.2088 -3.18402
ltoes -21.1579
